<svg xmlns="http://www.w3.org/2000/svg" role="img" viewBox="0 0 24 24">
  <title>LinkedIn</title>
  <path fill="#0A66C2" d="M22.225 0H1.771C.792 0 0 .774 0 1.729v20.542C0 23.226.792 24 1.771 24h20.451C23.2 24 24 23.226 24 22.271V1.729C24 .774 23.2 0 22.222 0h.003zM6.814 20.452H3.861V9h2.953v11.452zM5.337 7.433a2.062 2.062 0 1 1 .003-4.123 2.062 2.062 0 0 1-.003 4.123zM20.447 20.452h-3.554v-5.569c0-1.328-.026-3.037-1.852-3.037-1.853 0-2.136 1.445-2.136 2.939v5.667H9.351V9h3.414v1.561h.049c.476-.9 1.637-1.852 3.37-1.852 3.601 0 4.266 2.37 4.266 5.455v6.288z"/>
</svg>
