<svg width="960" height="640" viewBox="0 0 960 640" xmlns="http://www.w3.org/2000/svg">
  <defs>
    <linearGradient id="bg" x1="0%" y1="0%" x2="100%" y2="100%">
      <stop offset="0%" stop-color="#4F46E5" stop-opacity="0.9"/>
      <stop offset="50%" stop-color="#7C3AED" stop-opacity="0.85"/>
      <stop offset="100%" stop-color="#0EA5E9" stop-opacity="0.85"/>
    </linearGradient>
    <linearGradient id="card" x1="0%" y1="0%" x2="100%" y2="0%">
      <stop offset="0%" stop-color="rgba(255,255,255,0.85)"/>
      <stop offset="100%" stop-color="rgba(255,255,255,0.65)"/>
    </linearGradient>
    <linearGradient id="chip" x1="0%" y1="0%" x2="100%" y2="100%">
      <stop offset="0%" stop-color="#4C1D95"/>
      <stop offset="100%" stop-color="#2563EB"/>
    </linearGradient>
    <filter id="blur" x="-10%" y="-10%" width="120%" height="120%">
      <feGaussianBlur stdDeviation="40" result="blur"/>
      <feBlend in="SourceGraphic" in2="blur" mode="screen"/>
    </filter>
  </defs>
  <rect width="960" height="640" fill="#0B1220"/>
  <g opacity="0.45" filter="url(#blur)">
    <circle cx="220" cy="120" r="220" fill="#38BDF8"/>
    <circle cx="760" cy="520" r="260" fill="#1E3A8A"/>
    <circle cx="880" cy="140" r="180" fill="#9333EA"/>
  </g>
  <rect x="80" y="120" width="800" height="420" rx="48" fill="url(#bg)" opacity="0.55" stroke="rgba(255,255,255,0.12)" stroke-width="2"/>
  <rect x="140" y="170" width="360" height="260" rx="28" fill="rgba(15,23,42,0.72)" stroke="rgba(255,255,255,0.18)" stroke-width="1.5"/>
  <rect x="160" y="210" width="140" height="140" rx="16" fill="url(#chip)" opacity="0.75"/>
  <g opacity="0.9">
    <rect x="320" y="210" width="160" height="14" rx="7" fill="rgba(255,255,255,0.78)"/>
    <rect x="320" y="240" width="120" height="10" rx="5" fill="rgba(255,255,255,0.55)"/>
    <rect x="320" y="268" width="100" height="10" rx="5" fill="rgba(255,255,255,0.45)"/>
    <rect x="320" y="296" width="140" height="10" rx="5" fill="rgba(255,255,255,0.35)"/>
  </g>
  <rect x="530" y="190" width="260" height="60" rx="30" fill="url(#card)" opacity="0.85"/>
  <circle cx="580" cy="220" r="18" fill="#6366F1"/>
  <rect x="610" y="206" width="140" height="16" rx="8" fill="rgba(59,130,246,0.4)"/>
  <rect x="610" y="230" width="100" height="10" rx="5" fill="rgba(59,130,246,0.3)"/>
  <rect x="530" y="280" width="300" height="200" rx="34" fill="rgba(15,23,42,0.55)" stroke="rgba(255,255,255,0.16)" stroke-width="1.5"/>
  <path d="M560 430 C620 340 680 386 740 320" stroke="#22D3EE" stroke-width="10" stroke-linecap="round" fill="none"/>
  <path d="M560 370 C620 310 680 346 740 300" stroke="#FDE68A" stroke-width="10" stroke-linecap="round" fill="none" opacity="0.6"/>
  <circle cx="560" cy="430" r="12" fill="#22D3EE"/>
  <circle cx="740" cy="320" r="12" fill="#22D3EE"/>
  <circle cx="560" cy="370" r="10" fill="#FDE68A"/>
  <circle cx="740" cy="300" r="10" fill="#FDE68A"/>
  <rect x="180" y="460" width="220" height="64" rx="32" fill="rgba(255,255,255,0.12)"/>
  <rect x="420" y="480" width="180" height="36" rx="18" fill="rgba(255,255,255,0.18)" opacity="0.8"/>
  <rect x="620" y="470" width="150" height="44" rx="22" fill="#22D3EE" opacity="0.65"/>
</svg>
